<svg width="300" height="300" xmlns="http://www.w3.org/2000/svg">
 <g>
  <title>Layer 1</title>
  <text transform="matrix(12.9132 0 0 10.1362 -1222.39 -629.831)" stroke="#000" font-style="normal" font-weight="bold" xml:space="preserve" text-anchor="start" font-family="serif" font-size="24" id="svg_1" y="79.81565" x="96.47439" stroke-width="0" fill="#007fff">C</text>
  <text transform="matrix(10.538 0 0 9.69315 -1406.61 -1348.43)" stroke="#007fff" font-style="normal" font-weight="normal" xml:space="preserve" text-anchor="start" font-family="serif" font-size="24" id="svg_2" y="165.39479" x="143" fill="#007fff">B</text>
  <path id="svg_3" d="m455.715,60.04221l0.56913,0l0.17587,-0.38197l0.17587,0.38197l0.56913,0l-0.46044,0.23607l0.17588,0.38197l-0.46044,-0.23607l-0.46044,0.23607l0.17588,-0.38197l-0.46044,-0.23607z" stroke-width="0" stroke="#000" fill="#000000"/>
  <path id="svg_8" d="m80.39992,183.69724c-19.05401,0 -34.5,13.43112 -34.5,29.99999c0,16.56852 15.446,30 34.5,30c19.05423,0 34.5,-13.43148 34.5,-30c0,-16.56887 -15.44577,-29.99999 -34.5,-29.99999zm2.97913,46.26496l0,4.22558l-4.64778,0l0,-4.17797c-7.6269,-0.90825 -10.96913,-6.35748 -10.96913,-6.35748l4.75233,-3.45314c0,0 3.02894,4.58857 8.5123,4.58857c3.0287,0 5.32664,-1.4098 5.32664,-3.81689c0,-5.63266 -17.44467,-4.94963 -17.44467,-15.39608c0,-4.54135 4.12551,-7.81299 9.82006,-8.58467l0,-4.22515l4.64797,0l0,4.22282c3.96888,0.45432 8.66892,2.27085 8.66892,6.17796l0,2.99721l-6.16246,0l0,-1.4531c0,-1.49845 -2.19565,-2.49768 -4.65001,-2.49768c-3.13329,0 -5.43124,1.36224 -5.43124,3.26969c0,5.76697 17.44466,4.35946 17.44466,15.30555c0.00249,4.4976 -3.86199,8.40312 -9.86759,9.17479l0,0z" stroke-width="0" stroke="#000" fill="#f40909"/>
  <path id="svg_9" d="m381.83991,-75.74276c-0.34518,0 -0.625,0.22385 -0.625,0.5c0,0.27614 0.27982,0.5 0.625,0.5c0.34519,0 0.625,-0.22386 0.625,-0.5c0,-0.27615 -0.27981,-0.5 -0.625,-0.5zm0.05397,0.77108l0,0.07043l-0.0842,0l0,-0.06963c-0.13817,-0.01514 -0.19872,-0.10596 -0.19872,-0.10596l0.08609,-0.05755c0,0 0.05487,0.07648 0.15421,0.07648c0.05487,0 0.0965,-0.0235 0.0965,-0.06361c0,-0.09388 -0.31603,-0.08249 -0.31603,-0.2566c0,-0.07569 0.07474,-0.13022 0.1779,-0.14308l0,-0.07042l0.0842,0l0,0.07038c0.0719,0.00757 0.15705,0.03785 0.15705,0.10297l0,0.04995l-0.11164,0l0,-0.02422c0,-0.02497 -0.03978,-0.04163 -0.08424,-0.04163c-0.05676,0 -0.09839,0.0227 -0.09839,0.05449c0,0.09612 0.31603,0.07266 0.31603,0.25509c0.00005,0.07496 -0.06996,0.14005 -0.17876,0.15291l0,0z" stroke-width="0" stroke="#000" fill="#000000"/>
  <path id="svg_10" d="m506.21491,-84.69776c-0.34518,0 -0.625,0.22385 -0.625,0.5c0,0.27614 0.27982,0.5 0.625,0.5c0.34519,0 0.625,-0.22386 0.625,-0.5c0,-0.27615 -0.27981,-0.5 -0.625,-0.5zm0.05397,0.77108l0,0.07043l-0.0842,0l0,-0.06963c-0.13817,-0.01514 -0.19872,-0.10596 -0.19872,-0.10596l0.08609,-0.05755c0,0 0.05487,0.07648 0.15421,0.07648c0.05487,0 0.0965,-0.0235 0.0965,-0.06361c0,-0.09388 -0.31603,-0.08249 -0.31603,-0.2566c0,-0.07569 0.07474,-0.13022 0.1779,-0.14308l0,-0.07042l0.0842,0l0,0.07038c0.0719,0.00757 0.15705,0.03785 0.15705,0.10297l0,0.04995l-0.11164,0l0,-0.02422c0,-0.02497 -0.03978,-0.04163 -0.08424,-0.04163c-0.05676,0 -0.09839,0.0227 -0.09839,0.05449c0,0.09612 0.31603,0.07266 0.31603,0.25509c0.00005,0.07496 -0.06996,0.14005 -0.17876,0.15291l0,0z" stroke-width="0" stroke="#000" fill="#000000"/>
  <path id="svg_11" d="m471.93991,-100.86777c-19.88243,0 -35.99999,41.18878 -35.99999,91.99999c0,50.81014 16.11755,92.00002 35.99999,92.00002c19.88266,0 35.99999,-41.18988 35.99999,-92.00002c0,-50.8112 -16.11732,-91.99999 -35.99999,-91.99999zm3.10866,141.87924l0,12.95844l-4.84985,0l0,-12.81244c-7.9585,-2.78531 -11.44604,-19.49627 -11.44604,-19.49627l4.95895,-10.58963c0,0 3.16063,14.07163 8.88239,14.07163c3.16038,0 5.55823,-4.32338 5.55823,-11.70515c0,-17.27349 -18.20312,-15.17887 -18.20312,-47.21466c0,-13.92681 4.30488,-23.95983 10.24701,-26.32632l0,-12.95714l4.85005,0l0,12.94997c4.14144,1.39326 9.04582,6.96394 9.04582,18.94576l0,9.19143l-6.43039,0l0,-4.45616c0,-4.59525 -2.29111,-7.65954 -4.85218,-7.65954c-3.26952,0 -5.66738,4.17754 -5.66738,10.02704c0,17.68538 18.20312,13.36901 18.20312,46.93703c0.0026,13.79265 -4.0299,25.76958 -10.29661,28.13602l0,-0.00001z" stroke-width="0" stroke="#000" fill="#000000"/>
  <path id="svg_12" d="m655.8499,47.38723c-1.65687,0 -3,6.93941 -3,15.5c0,8.5604 1.34313,15.5 3,15.5c1.65689,0 3,-6.9396 3,-15.5c0,-8.56058 -1.34311,-15.5 -3,-15.5zm0.25906,23.90357l0,2.18321l-0.40415,0l0,-2.15862c-0.66321,-0.46926 -0.95384,-3.2847 -0.95384,-3.2847l0.41325,-1.78412c0,0 0.26339,2.37076 0.7402,2.37076c0.26336,0 0.46319,-0.7284 0.46319,-1.97206c0,-2.91021 -1.51693,-2.55731 -1.51693,-7.95464c0,-2.34636 0.35874,-4.03671 0.85392,-4.43541l0,-2.183l0.40417,0l0,2.18179c0.34512,0.23473 0.75382,1.17327 0.75382,3.19195l0,1.54856l-0.53587,0l0,-0.75077c0,-0.7742 -0.19093,-1.29047 -0.40435,-1.29047c-0.27246,0 -0.47228,0.70383 -0.47228,1.68934c0,2.9796 1.51693,2.25239 1.51693,7.90787c0.00022,2.32376 -0.33583,4.34161 -0.85805,4.74031l0,0z" stroke-width="0" stroke="#000" fill="#000000"/>
  <path stroke="#000" id="svg_13" d="m641.79412,217.78224c-26.57896,0 -48.125,0.22385 -48.125,0.5c0,0.27614 21.54605,0.5 48.125,0.5c26.57927,0 48.125,-0.22386 48.125,-0.5c0,-0.27615 -21.54574,-0.5 -48.125,-0.5zm4.15567,0.77108l0,0.07043l-6.48331,0l0,-0.06963c-10.63898,-0.01514 -15.30114,-0.10596 -15.30114,-0.10596l6.62916,-0.05755c0,0 4.22515,0.07648 11.87404,0.07648c4.22481,0 7.43027,-0.0235 7.43027,-0.06361c0,-0.09388 -24.33405,-0.08249 -24.33405,-0.2566c0,-0.07569 5.75479,-0.13022 13.69827,-0.14308l0,-0.07042l6.48358,0l0,0.07038c5.5363,0.00757 12.09251,0.03785 12.09251,0.10297l0,0.04995l-8.59618,0l0,-0.02422c0,-0.02497 -3.06277,-0.04163 -6.48643,-0.04163c-4.37072,0 -7.57619,0.0227 -7.57619,0.05449c0,0.09612 24.33404,0.07266 24.33404,0.25509c0.00348,0.07496 -5.3872,0.14005 -13.76457,0.15291l0,0z" stroke-width="0" fill="#000000"/>
 </g>

</svg>